<svg version="1.1" baseProfile="full" xmlns="http://www.w3.org/2000/svg" xmlns:xlink="http://www.w3.org/1999/xlink"
     id="react-sketch-canvas" style="width: 100%; height: 100%;">
    <g id="react-sketch-canvas__eraser-stroke-group" display="none">
        <rect id="react-sketch-canvas__mask-background" x="0" y="0" width="100%" height="100%" fill="white"/>
    </g>
    <defs/>
    <g id="react-sketch-canvas__canvas-background-group">
        <rect id="react-sketch-canvas__canvas-background" x="0" y="0" width="100%" height="100%" fill="white"/>
    </g>
    <g id="react-sketch-canvas__stroke-group-0" mask="url(#react-sketch-canvas__eraser-mask-0)">
        <path id="react-sketch-canvas__0"
              d="M 70,40.5 C 72.2,40.5 77,40.3 81, 40.5 C 85,40.7 86.6,41.3 90, 41.5 C 93.4,41.7 94.8,41.3 98, 41.5 C 101.2,41.7 103,42.3 106, 42.5 C 109,42.7 110.2,42.5 113, 42.5 C 115.8,42.5 117.4,42.5 120, 42.5 C 122.6,42.5 123.6,42.5 126, 42.5 C 128.4,42.5 129.6,42.5 132, 42.5 C 134.4,42.5 135.8,42.5 138, 42.5 C 140.2,42.5 141,42.5 143, 42.5 C 145,42.5 146.2,42.5 148, 42.5 C 149.8,42.5 150.8,42.7 152, 42.5 C 153.2,42.3 153,41.7 154, 41.5 C 155,41.3 156.2,41.5 157, 41.5 C 157.8,41.5 157.4,41.7 158, 41.5 C 158.6,41.3 159.2,40.7 160, 40.5 C 160.8,40.3 161.4,40.5 162, 40.5 C 162.6,40.5 162.2,40.5 163, 40.5 C 163.8,40.5 165.2,40.7 166, 40.5 C 166.8,40.3 166.2,39.7 167, 39.5 C 167.8,39.3 169,39.5 170, 39.5 C 171,39.5 171,39.5 172, 39.5 C 173,39.5 174,39.5 175, 39.5 C 176,39.5 176.2,39.5 177, 39.5 C 177.8,39.5 178.2,39.5 179, 39.5 C 179.8,39.5 180,39.5 181, 39.5 C 182,39.5 182.8,39.5 184, 39.5 C 185.2,39.5 186,39.7 187, 39.5 C 188,39.3 188,38.7 189, 38.5 C 190,38.3 190.8,38.5 192, 38.5 C 193.2,38.5 193.8,38.5 195, 38.5 C 196.2,38.5 196.8,38.5 198, 38.5 C 199.2,38.5 199.8,38.5 201, 38.5 C 202.2,38.5 203,38.5 204, 38.5 C 205,38.5 205,38.7 206, 38.5 C 207,38.3 208,37.7 209, 37.5 C 210,37.3 210.2,37.7 211, 37.5 C 211.8,37.3 212.2,36.7 213, 36.5 C 213.8,36.3 214.2,36.5 215, 36.5 C 215.8,36.5 216.4,36.5 217, 36.5 C 217.6,36.5 217.4,36.5 218, 36.5 C 218.6,36.5 219.2,36.5 220, 36.5 C 220.8,36.5 221.4,36.5 222, 36.5 C 222.6,36.5 222.6,36.5 223, 36.5 C 223.4,36.5 223.6,36.5 224, 36.5 C 224.4,36.5 224.6,36.5 225, 36.5 C 225.4,36.5 225.6,36.7 226, 36.5 C 226.4,36.3 226.2,35.7 227, 35.5 C 227.8,35.3 229,35.5 230, 35.5 C 231,35.5 231,35.5 232, 35.5 C 233,35.5 234,35.7 235, 35.5 C 236,35.3 236.2,34.7 237, 34.5 C 237.8,34.3 237.8,34.5 239, 34.5 C 240.2,34.5 241.8,34.5 243, 34.5 C 244.2,34.5 244,34.5 245, 34.5 C 246,34.5 247,34.5 248, 34.5 C 249,34.5 249.2,34.5 250, 34.5 C 250.8,34.5 251.2,34.5 252, 34.5 C 252.8,34.5 253.2,34.5 254, 34.5 C 254.8,34.5 255.4,34.5 256, 34.5 C 256.6,34.5 256.2,34.5 257, 34.5 C 257.8,34.5 259.2,34.5 260, 34.5 C 260.8,34.5 260.4,34.5 261, 34.5 C 261.6,34.5 262.2,34.5 263, 34.5 C 263.8,34.5 264.4,34.5 265, 34.5 C 265.6,34.5 265.6,34.5 266, 34.5 C 266.4,34.5 266.6,34.5 267, 34.5 C 267.4,34.5 267.6,34.5 268, 34.5 C 268.4,34.5 268.8,34.5 269, 34.5 C 269.2,34.5 268.8,34.5 269, 34.5 C 269.2,34.5 269.6,34.5 270, 34.5 C 270.4,34.5 270.6,34.5 271, 34.5 C 271.4,34.5 271.8,34.5 272, 34.5 C 272.2,34.5 272,34.1 272, 34.5 C 272,34.9 272,35.5 272, 36.5 C 272,37.5 272,37.9 272, 39.5 C 272,41.1 272,42.1 272, 44.5 C 272,46.9 272,48.9 272, 51.5 C 272,54.1 272.2,54.9 272, 57.5 C 271.8,60.1 271.4,61.7 271, 64.5 C 270.6,67.3 270.4,68.9 270, 71.5 C 269.6,74.1 269.4,74.9 269, 77.5 C 268.6,80.1 268.4,81.9 268, 84.5 C 267.6,87.1 267.4,87.7 267, 90.5 C 266.6,93.3 266.4,95.9 266, 98.5 C 265.6,101.1 265.4,101.1 265, 103.5 C 264.6,105.9 264.2,107.9 264, 110.5 C 263.8,113.1 264.2,114.5 264, 116.5 C 263.8,118.5 263.4,118.5 263, 120.5 C 262.6,122.5 262.4,124.3 262, 126.5 C 261.6,128.7 261.4,129.7 261, 131.5 C 260.6,133.3 260.4,133.9 260, 135.5 C 259.6,137.1 259.2,137.7 259, 139.5 C 258.8,141.3 259,142.5 259, 144.5 C 259,146.5 259.2,147.5 259, 149.5 C 258.8,151.5 258.2,152.7 258, 154.5 C 257.8,156.3 258.2,156.9 258, 158.5 C 257.8,160.1 257.2,160.7 257, 162.5 C 256.8,164.3 257,165.9 257, 167.5 C 257,169.1 257.2,169.1 257, 170.5 C 256.8,171.9 256.2,173.1 256, 174.5 C 255.8,175.9 256,176.3 256, 177.5 C 256,178.7 256,179.1 256, 180.5 C 256,181.9 256,182.9 256, 184.5 C 256,186.1 256,186.9 256, 188.5 C 256,190.1 256,190.9 256, 192.5 C 256,194.1 256,194.9 256, 196.5 C 256,198.1 256,199.1 256, 200.5 C 256,201.9 256,202.5 256, 203.5 C 256,204.5 256,204.3 256, 205.5 C 256,206.7 256,208.5 256, 209.5 C 256,210.5 256,209.7 256, 210.5 C 256,211.3 256,212.7 256, 213.5 C 256,214.3 256,213.7 256, 214.5 C 256,215.3 256,216.7 256, 217.5 C 256,218.3 256,217.9 256, 218.5 C 256,219.1 256,219.7 256, 220.5 C 256,221.3 256,221.9 256, 222.5 C 256,223.1 256,222.9 256, 223.5 C 256,224.1 256,224.9 256, 225.5 C 256,226.1 256,225.9 256, 226.5 C 256,227.1 256,227.7 256, 228.5 C 256,229.3 256,229.9 256, 230.5 C 256,231.1 256,230.7 256, 231.5 C 256,232.3 256,233.7 256, 234.5 C 256,235.3 256,234.9 256, 235.5 C 256,236.1 256,236.7 256, 237.5 C 256,238.3 256,238.7 256, 239.5 C 256,240.3 256,240.5 256, 241.5 C 256,242.5 255.8,243.5 256, 244.5 C 256.2,245.5 256.8,245.7 257, 246.5 C 257.2,247.3 257,247.7 257, 248.5 C 257,249.3 257,249.7 257, 250.5 C 257,251.3 257,251.7 257, 252.5 C 257,253.3 257,253.7 257, 254.5 C 257,255.3 257,255.9 257, 256.5 C 257,257.1 257,256.9 257, 257.5 C 257,258.1 257,258.9 257, 259.5 C 257,260.1 257,260.1 257, 260.5 C 257,260.9 257,261.3 257, 261.5 C 257,261.7 257,261.3 257, 261.5 C 257,261.7 257,262.1 257, 262.5 C 257,262.9 257,263.1 257, 263.5 C 257,263.9 257,264.1 257, 264.5 C 257,264.9 257.2,265.3 257, 265.5 C 256.8,265.7 256.4,265.5 256, 265.5 C 255.6,265.5 256,265.1 255, 265.5 C 254,265.9 252.4,267.1 251, 267.5 C 249.6,267.9 249.6,267.3 248, 267.5 C 246.4,267.7 244.6,268.3 243, 268.5 C 241.4,268.7 241.4,268.5 240, 268.5 C 238.6,268.5 237.6,268.5 236, 268.5 C 234.4,268.5 233.6,268.5 232, 268.5 C 230.4,268.5 229.4,268.5 228, 268.5 C 226.6,268.5 226.2,268.5 225, 268.5 C 223.8,268.5 223.2,268.5 222, 268.5 C 220.8,268.5 220.4,268.5 219, 268.5 C 217.6,268.5 216.2,268.5 215, 268.5 C 213.8,268.5 214,268.5 213, 268.5 C 212,268.5 210.8,268.5 210, 268.5 C 209.2,268.5 209.8,268.5 209, 268.5 C 208.2,268.5 206.8,268.5 206, 268.5 C 205.2,268.5 205.8,268.5 205, 268.5 C 204.2,268.5 202.8,268.5 202, 268.5 C 201.2,268.5 202,268.5 201, 268.5 C 200,268.5 198.2,268.5 197, 268.5 C 195.8,268.5 196,268.5 195, 268.5 C 194,268.5 193.2,268.7 192, 268.5 C 190.8,268.3 190,267.7 189, 267.5 C 188,267.3 188,267.7 187, 267.5 C 186,267.3 185,266.7 184, 266.5 C 183,266.3 182.8,266.5 182, 266.5 C 181.2,266.5 181.2,266.7 180, 266.5 C 178.8,266.3 176.8,265.7 176, 265.5 C 175.2,265.3 176.6,265.5 176, 265.5 C 175.4,265.5 173.8,265.5 173, 265.5 C 172.2,265.5 172.6,265.5 172, 265.5 C 171.4,265.5 170.8,265.5 170, 265.5 C 169.2,265.5 168.8,265.5 168, 265.5 C 167.2,265.5 166.8,265.5 166, 265.5 C 165.2,265.5 164.6,265.5 164, 265.5 C 163.4,265.5 163.6,265.5 163, 265.5 C 162.4,265.5 161.8,265.5 161, 265.5 C 160.2,265.5 159.6,265.5 159, 265.5 C 158.4,265.5 158.8,265.7 158, 265.5 C 157.2,265.3 155.6,264.7 155, 264.5 C 154.4,264.3 155.4,264.5 155, 264.5 C 154.6,264.5 153.8,264.5 153, 264.5 C 152.2,264.5 151.6,264.5 151, 264.5 C 150.4,264.5 150.6,264.5 150, 264.5 C 149.4,264.5 148.8,264.5 148, 264.5 C 147.2,264.5 146.8,264.5 146, 264.5 C 145.2,264.5 144.8,264.5 144, 264.5 C 143.2,264.5 142.6,264.5 142, 264.5 C 141.4,264.5 141.6,264.5 141, 264.5 C 140.4,264.5 139.8,264.5 139, 264.5 C 138.2,264.5 137.8,264.5 137, 264.5 C 136.2,264.5 135.8,264.5 135, 264.5 C 134.2,264.5 133.8,264.5 133, 264.5 C 132.2,264.5 131.8,264.5 131, 264.5 C 130.2,264.5 129.6,264.5 129, 264.5 C 128.4,264.5 128.6,264.5 128, 264.5 C 127.4,264.5 126.6,264.5 126, 264.5 C 125.4,264.5 125.6,264.5 125, 264.5 C 124.4,264.5 123.8,264.5 123, 264.5 C 122.2,264.5 121.8,264.5 121, 264.5 C 120.2,264.5 120,264.5 119, 264.5 C 118,264.5 116.8,264.5 116, 264.5 C 115.2,264.5 115.8,264.5 115, 264.5 C 114.2,264.5 112.8,264.5 112, 264.5 C 111.2,264.5 111.6,264.5 111, 264.5 C 110.4,264.5 110,264.5 109, 264.5 C 108,264.5 107,264.5 106, 264.5 C 105,264.5 104.6,264.5 104, 264.5 C 103.4,264.5 103.4,264.5 103, 264.5 C 102.6,264.5 102.6,264.5 102, 264.5 C 101.4,264.5 100.6,264.5 100, 264.5 C 99.4,264.5 99.4,264.5 99, 264.5 C 98.6,264.5 98.6,264.5 98, 264.5 C 97.4,264.5 96.6,264.5 96, 264.5 C 95.4,264.5 95.6,264.5 95, 264.5 C 94.4,264.5 93.8,264.5 93, 264.5 C 92.2,264.5 91.6,264.5 91, 264.5 C 90.4,264.5 90.8,264.5 90, 264.5 C 89.2,264.5 87.8,264.5 87, 264.5 C 86.2,264.5 86.6,264.5 86, 264.5 C 85.4,264.5 84.8,264.5 84, 264.5 C 83.2,264.5 82.6,264.5 82, 264.5 C 81.4,264.5 81.4,264.5 81, 264.5 C 80.6,264.5 80.4,264.5 80, 264.5 C 79.6,264.5 79.4,264.3 79, 264.5 C 78.6,264.7 78.4,265.3 78, 265.5 C 77.6,265.7 77.4,265.5 77, 265.5 C 76.6,265.5 76.2,265.5 76, 265.5 C 75.8,265.5 76.2,265.5 76, 265.5 C 75.8,265.5 75.2,265.5 75, 265.5 C 74.8,265.5 75,265.5 75, 265.5 C 75,265.5 75,265.9 75, 265.5 C 75,265.1 75.6,264.5 75, 263.5 C 74.4,262.5 72.8,261.5 72, 260.5 C 71.2,259.5 71.2,259.5 71, 258.5 C 70.8,257.5 71.2,256.9 71, 255.5 C 70.8,254.1 70.4,252.9 70, 251.5 C 69.6,250.1 69.4,249.7 69, 248.5 C 68.6,247.3 68.2,246.7 68, 245.5 C 67.8,244.3 68.2,243.9 68, 242.5 C 67.8,241.1 67.2,239.9 67, 238.5 C 66.8,237.1 67,237.1 67, 235.5 C 67,233.9 67.2,232.7 67, 230.5 C 66.8,228.3 66.4,226.7 66, 224.5 C 65.6,222.3 65.4,221.9 65, 219.5 C 64.6,217.1 64.2,214.7 64, 212.5 C 63.8,210.3 64.2,210.3 64, 208.5 C 63.8,206.7 63.2,205.3 63, 203.5 C 62.8,201.7 63,201.3 63, 199.5 C 63,197.7 63,195.9 63, 194.5 C 63,193.1 63,193.3 63, 192.5 C 63,191.7 63,191.7 63, 190.5 C 63,189.3 63,187.5 63, 186.5 C 63,185.5 63,186.3 63, 185.5 C 63,184.7 63,183.3 63, 182.5 C 63,181.7 63,181.9 63, 181.5 C 63,181.1 63,181.3 63, 180.5 C 63,179.7 63,178.7 63, 177.5 C 63,176.3 63.2,175.9 63, 174.5 C 62.8,173.1 62.2,171.9 62, 170.5 C 61.8,169.1 62,168.9 62, 167.5 C 62,166.1 62,164.9 62, 163.5 C 62,162.1 62,161.7 62, 160.5 C 62,159.3 62,158.7 62, 157.5 C 62,156.3 62.2,155.5 62, 154.5 C 61.8,153.5 61.2,153.3 61, 152.5 C 60.8,151.7 61,151.1 61, 150.5 C 61,149.9 61,149.9 61, 149.5 C 61,149.1 61,148.9 61, 148.5 C 61,148.1 61,148.1 61, 147.5 C 61,146.9 61,146.1 61, 145.5 C 61,144.9 61,145.1 61, 144.5 C 61,143.9 61,143.5 61, 142.5 C 61,141.5 61,140.7 61, 139.5 C 61,138.3 61,137.7 61, 136.5 C 61,135.3 61,134.7 61, 133.5 C 61,132.3 61,131.7 61, 130.5 C 61,129.3 61,128.3 61, 127.5 C 61,126.7 61,127.1 61, 126.5 C 61,125.9 61,125.3 61, 124.5 C 61,123.7 61,123.1 61, 122.5 C 61,121.9 61,121.9 61, 121.5 C 61,121.1 61,120.9 61, 120.5 C 61,120.1 61,119.9 61, 119.5 C 61,119.1 61,118.9 61, 118.5 C 61,118.1 61,117.7 61, 117.5 C 61,117.3 61,117.7 61, 117.5 C 61,117.3 61,116.9 61, 116.5 C 61,116.1 61,115.9 61, 115.5 C 61,115.1 61,115.3 61, 114.5 C 61,113.7 61,112.5 61, 111.5 C 61,110.5 61,110.3 61, 109.5 C 61,108.7 61,108.5 61, 107.5 C 61,106.5 61,105.5 61, 104.5 C 61,103.5 61,103.5 61, 102.5 C 61,101.5 61,100.7 61, 99.5 C 61,98.3 61,97.7 61, 96.5 C 61,95.3 61,94.5 61, 93.5 C 61,92.5 61,92.1 61, 91.5 C 61,90.9 61,91.1 61, 90.5 C 61,89.9 61,89.3 61, 88.5 C 61,87.7 61,86.9 61, 86.5 C 61,86.1 61,86.7 61, 86.5 C 61,86.3 61,86.1 61, 85.5 C 61,84.9 61,84.1 61, 83.5 C 61,82.9 61,82.7 61, 82.5 C 61,82.3 61,82.9 61, 82.5 C 61,82.1 61,81.1 61, 80.5 C 61,79.9 61,80.5 61, 79.5 C 61,78.5 61,76.7 61, 75.5 C 61,74.3 61,74.3 61, 73.5 C 61,72.7 61,72.3 61, 71.5 C 61,70.7 61,70.3 61, 69.5 C 61,68.7 61,68.3 61, 67.5 C 61,66.7 61,66.3 61, 65.5 C 61,64.7 61,64.1 61, 63.5 C 61,62.9 61,63.1 61, 62.5 C 61,61.9 61,61.3 61, 60.5 C 61,59.7 61,59.1 61, 58.5 C 61,57.9 61,57.9 61, 57.5 C 61,57.1 61,57.1 61, 56.5 C 61,55.9 61,54.9 61, 54.5 C 61,54.1 61,55.1 61, 54.5 C 61,53.9 61,52.3 61, 51.5 C 61,50.7 61,50.7 61, 50.5 C 61,50.3 61,50.7 61, 50.5 C 61,50.3 61,49.9 61, 49.5 C 61,49.1 61,48.9 61, 48.5 C 61,48.1 61,47.9 61, 47.5 C 61,47.1 61,46.9 61, 46.5 C 61,46.1 61,45.7 61, 45.5 C 61,45.3 61,45.7 61, 45.5 C 61,45.3 61,44.7 61, 44.5 C 61,44.3 61,44.7 61, 44.5 C 61,44.3 61,43.7 61, 43.5 C 61,43.3 61,43.5 61, 43.5 C 61,43.5 61,43.7 61, 43.5 C 61,43.3 61,42.7 61, 42.5 C 61,42.3 61,42.7 61, 42.5 C 61,42.3 61,41.7 61, 41.5 C 61,41.3 61,41.7 61, 41.5 C 61,41.3 61,40.7 61, 40.5 C 61,40.3 60.8,40.5 61, 40.5 C 61.2,40.5 61.8,40.5 62, 40.5 C 62.2,40.5 61.8,40.5 62, 40.5 C 62.2,40.5 62.8,40.5 63, 40.5 C 63.2,40.5 62.8,40.5 63, 40.5 C 63.2,40.5 63.8,40.5 64, 40.5 C 64.2,40.5 64,40.5 64, 40.5 C 64,40.5 63.8,40.5 64, 40.5 C 64.2,40.5 64.8,40.5 65, 40.5 C 65.2,40.5 64.8,40.5 65, 40.5 C 65.2,40.5 65.8,40.5 66, 40.5 C 66.2,40.5 65.8,40.5 66, 40.5 C 66.2,40.5 66.8,40.5 67, 40.5 C 67.2,40.5 66.8,40.5 67, 40.5 C 67.2,40.5 67.8,40.5 68, 40.5 C 68.2,40.5 68,40.5 68, 40.5 C 68,40.5 67.8,40.5 68, 40.5 C 68.2,40.5 68.8,40.5 69, 40.5 C 69.2,40.5 69,40.5 69, 40.5 C 69,40.5 68.8,40.5 69, 40.5 C 69.2,40.5 69.8,40.3 70, 40.5 C 70.2,40.7 70,41.3 70, 41.5 C 70,41.7 70,41.5 70, 41.5"
              fill="none" stroke-linecap="round" stroke="#000000" stroke-width="4">
        </path>
        <path d="M 62,55 L 288,55 L 288,292 L 62,292 L 62,55" fill="none" stroke-linecap="round" stroke="#000000" stroke-width="4"/>
<!--        <animate xlink:href="#react-sketch-canvas__0"-->
<!--                 attributeName="d"-->
<!--                 attributeType="XML"-->
<!--                 to="M 60,34 H 272 V 268 H 60 V 34"-->
<!--                 dur="1s"-->
<!--                 fill="freeze"-->
<!--                    repeatCount="indefinite" />-->
    </g>
</svg>
